<?xml version="1.0" encoding="UTF-8"?>
<svg xmlns="http://www.w3.org/2000/svg" xmlns:xlink="http://www.w3.org/1999/xlink" width="35px" height="35px" viewBox="0 0 35 35" version="1.1">
<defs>
<clipPath id="clip1">
  <path d="M 2.488281 0.144531 L 32.515625 0.144531 L 32.515625 25.199219 L 2.488281 25.199219 Z M 2.488281 0.144531 "/>
</clipPath>
<clipPath id="clip2">
  <path d="M 2.488281 9.800781 L 32.515625 9.800781 L 32.515625 34.863281 L 2.488281 34.863281 Z M 2.488281 9.800781 "/>
</clipPath>
</defs>
<g id="surface1">
<g clip-path="url(#clip1)" clip-rule="nonzero">
<path style=" stroke:none;fill-rule:nonzero;fill:rgb(5.882353%,30.196078%,49.803922%);fill-opacity:1;" d="M 32.511719 8.828125 L 32.511719 14.027344 L 17.5 5.359375 L 8.824219 10.371094 L 6.988281 11.429688 L 6.988281 13.820312 L 10.902344 16.082031 L 22.027344 22.503906 L 17.5 25.117188 L 2.488281 16.402344 L 2.488281 8.828125 L 17.5 0.160156 Z M 32.511719 8.828125 "/>
</g>
<g clip-path="url(#clip2)" clip-rule="nonzero">
<path style=" stroke:none;fill-rule:nonzero;fill:rgb(45.098039%,45.098039%,45.098039%);fill-opacity:1;" d="M 17.5 9.878906 L 32.511719 18.550781 L 32.511719 26.164062 L 17.5 34.835938 L 2.488281 26.164062 L 2.488281 20.933594 L 17.5 29.636719 L 25.941406 24.765625 L 28.011719 23.566406 L 28.011719 21.445312 L 24.097656 19.1875 L 12.738281 12.628906 Z M 17.5 9.878906 "/>
</g>
</g>
</svg>
