<?xml version="1.0" encoding="UTF-8" standalone="no" ?>
<!DOCTYPE svg PUBLIC "-//W3C//DTD SVG 1.1//EN" "http://www.w3.org/Graphics/SVG/1.1/DTD/svg11.dtd">
<svg xmlns="http://www.w3.org/2000/svg" xmlns:xlink="http://www.w3.org/1999/xlink" version="1.1" width="24" height="24" viewBox="368 368 24 24" xml:space="preserve">
<desc>Created with Fabric.js 5.2.4</desc>
<defs>
</defs>
<g transform="matrix(1 0 0 1 12 12)" id="0c6b4ef5-8034-476d-99a9-afc4ea04f8ed"  >
<rect style="stroke: none; stroke-width: 1; stroke-dasharray: none; stroke-linecap: butt; stroke-dashoffset: 0; stroke-linejoin: miter; stroke-miterlimit: 4; fill: rgb(255,255,255); fill-rule: nonzero; opacity: 1; visibility: hidden;" vector-effect="non-scaling-stroke"  x="-12" y="-12" rx="0" ry="0" width="24" height="24" />
</g>
<g transform="matrix(Infinity NaN NaN Infinity 0 0)" id="312e35a4-7805-4009-87fd-d8b6e337bac0"  >
</g>
<g transform="matrix(0.02 0 0 0.02 24 24)"  >
<g style="" vector-effect="non-scaling-stroke"   >
		<g transform="matrix(1.33 0 0 1.33 -142.13 -0.79)" clip-path="url(#CLIPPATH_3)"  >
<clipPath id="CLIPPATH_3" >
	<path transform="matrix(1 0 0 1 0 0) translate(-81.64, -186.49)" id="b28208fe16" clip-path="url(#undefined)" d="M 81.644531 185.488281 C 81.09375 185.488281 80.644531 185.9375 80.644531 186.488281 C 80.644531 187.042969 81.09375 187.488281 81.644531 187.488281 C 82.199219 187.488281 82.644531 187.042969 82.644531 186.488281 C 82.644531 185.9375 82.199219 185.488281 81.644531 185.488281 Z M 81.644531 185.488281" stroke-linecap="round" />
</clipPath>
<path style="stroke: none; stroke-width: 1; stroke-dasharray: none; stroke-linecap: butt; stroke-dashoffset: 0; stroke-linejoin: miter; stroke-miterlimit: 4; fill: rgb(47,116,142); fill-rule: nonzero; opacity: 1;" vector-effect="non-scaling-stroke"  transform=" translate(-81.64, -186.49)" d="M 80.644531 185.488281 L 82.644531 185.488281 L 82.644531 187.488281 L 80.644531 187.488281 Z M 80.644531 185.488281" stroke-linecap="round" />
</g>
		<g transform="matrix(1 0 0 1 74.2 16.41)"  >
<path style="stroke: rgb(47,116,142); stroke-width: 1; stroke-dasharray: none; stroke-linecap: round; stroke-dashoffset: 0; stroke-linejoin: miter; stroke-miterlimit: 4; fill: none; fill-rule: nonzero; opacity: 1;" vector-effect="non-scaling-stroke"  transform=" translate(-40.13, -0.5)" d="M 0.501679 0.497855 L 79.762101 0.497855" stroke-linecap="round" />
</g>
		<g transform="matrix(1 0 0 1 -0.99 92.1)"  >
<path style="stroke: rgb(47,116,142); stroke-width: 1; stroke-dasharray: none; stroke-linecap: round; stroke-dashoffset: 0; stroke-linejoin: miter; stroke-miterlimit: 4; fill: none; fill-rule: nonzero; opacity: 1;" vector-effect="non-scaling-stroke"  transform=" translate(-40.13, -0.5)" d="M 0.501732 0.501142 L 79.762154 0.501142" stroke-linecap="round" />
</g>
		<g transform="matrix(1 0 0 1 106.57 -0.93)"  >
<path style="stroke: rgb(47,116,142); stroke-width: 1; stroke-dasharray: none; stroke-linecap: round; stroke-dashoffset: 0; stroke-linejoin: miter; stroke-miterlimit: 4; fill: none; fill-rule: nonzero; opacity: 1;" vector-effect="non-scaling-stroke"  transform=" translate(-48.35, -0.5)" d="M 0.499201 0.499358 L 96.191915 0.499358" stroke-linecap="round" />
</g>
		<g transform="matrix(1 0 0 1 -108.55 -0.93)"  >
<path style="stroke: rgb(47,116,142); stroke-width: 1; stroke-dasharray: none; stroke-linecap: round; stroke-dashoffset: 0; stroke-linejoin: miter; stroke-miterlimit: 4; fill: none; fill-rule: nonzero; opacity: 1;" vector-effect="non-scaling-stroke"  transform=" translate(-48.35, -0.5)" d="M 0.499024 0.499358 L 96.191738 0.499358" stroke-linecap="round" />
</g>
		<g transform="matrix(1.33 0 0 1.33 154.92 -0.93)" clip-path="url(#CLIPPATH_4)"  >
<clipPath id="CLIPPATH_4" >
	<path transform="matrix(1 0 0 1 0 0) translate(-304.43, -186.38)" id="ec4b3a1556" clip-path="url(#undefined)" d="M 304.429688 185.277344 C 303.820312 185.277344 303.324219 185.773438 303.324219 186.382812 C 303.324219 186.992188 303.820312 187.488281 304.429688 187.488281 C 305.039062 187.488281 305.535156 186.992188 305.535156 186.382812 C 305.535156 185.773438 305.039062 185.277344 304.429688 185.277344 Z M 304.429688 185.277344" stroke-linecap="round" />
</clipPath>
<path style="stroke: none; stroke-width: 1; stroke-dasharray: none; stroke-linecap: butt; stroke-dashoffset: 0; stroke-linejoin: miter; stroke-miterlimit: 4; fill: rgb(47,116,142); fill-rule: nonzero; opacity: 1;" vector-effect="non-scaling-stroke"  transform=" translate(-304.43, -186.38)" d="M 303.324219 185.277344 L 305.535156 185.277344 L 305.535156 187.488281 L 303.324219 187.488281 Z M 303.324219 185.277344" stroke-linecap="round" />
</g>
		<g transform="matrix(1.33 0 0 1.33 -116.31 16.41)" clip-path="url(#CLIPPATH_5)"  >
<clipPath id="CLIPPATH_5" >
	<path transform="matrix(1 0 0 1 0 0) translate(-101.01, -199.39)" id="8687" clip-path="url(#undefined)" d="M 101.011719 198.289062 C 100.398438 198.289062 99.90625 198.78125 99.90625 199.390625 C 99.90625 200.003906 100.398438 200.496094 101.011719 200.496094 C 101.621094 200.496094 102.113281 200.003906 102.113281 199.390625 C 102.113281 198.78125 101.621094 198.289062 101.011719 198.289062 Z M 101.011719 198.289062" stroke-linecap="round" />
</clipPath>
<path style="stroke: none; stroke-width: 1; stroke-dasharray: none; stroke-linecap: butt; stroke-dashoffset: 0; stroke-linejoin: miter; stroke-miterlimit: 4; fill: rgb(47,116,142); fill-rule: nonzero; opacity: 1;" vector-effect="non-scaling-stroke"  transform=" translate(-101.01, -199.39)" d="M 99.90625 198.289062 L 102.113281 198.289062 L 102.113281 200.496094 L 99.90625 200.496094 Z M 99.90625 198.289062" stroke-linecap="round" />
</g>
		<g transform="matrix(1.33 0 0 1.33 114.33 16.41)" clip-path="url(#CLIPPATH_6)"  >
<clipPath id="CLIPPATH_6" >
	<path transform="matrix(1 0 0 1 0 0) translate(-273.99, -199.39)" id="586" clip-path="url(#undefined)" d="M 273.988281 198.289062 C 273.378906 198.289062 272.886719 198.78125 272.886719 199.390625 C 272.886719 200.003906 273.378906 200.496094 273.988281 200.496094 C 274.601562 200.496094 275.09375 200.003906 275.09375 199.390625 C 275.09375 198.78125 274.601562 198.289062 273.988281 198.289062 Z M 273.988281 198.289062" stroke-linecap="round" />
</clipPath>
<path style="stroke: none; stroke-width: 1; stroke-dasharray: none; stroke-linecap: butt; stroke-dashoffset: 0; stroke-linejoin: miter; stroke-miterlimit: 4; fill: rgb(47,116,142); fill-rule: nonzero; opacity: 1;" vector-effect="non-scaling-stroke"  transform=" translate(-273.99, -199.39)" d="M 272.886719 198.289062 L 275.09375 198.289062 L 275.09375 200.496094 L 272.886719 200.496094 Z M 272.886719 198.289062" stroke-linecap="round" />
</g>
		<g transform="matrix(1.33 0 0 1.33 -20.31 -18.2)"  >
<path style="stroke: none; stroke-width: 1; stroke-dasharray: none; stroke-linecap: butt; stroke-dashoffset: 0; stroke-linejoin: miter; stroke-miterlimit: 4; fill: rgb(47,116,142); fill-rule: nonzero; opacity: 1;" vector-effect="non-scaling-stroke"  transform=" translate(-173.01, -173.43)" d="M 160.050781 165.953125 L 173.007812 158.472656 L 185.960938 165.953125 L 185.960938 180.910156 L 173.007812 188.390625 L 160.050781 180.910156 L 160.050781 165.953125" stroke-linecap="round" />
</g>
		<g transform="matrix(1.33 0 0 1.33 15.72 -18.2)"  >
<path style="stroke: none; stroke-width: 1; stroke-dasharray: none; stroke-linecap: butt; stroke-dashoffset: 0; stroke-linejoin: miter; stroke-miterlimit: 4; fill: rgb(0,74,173); fill-rule: nonzero; opacity: 1;" vector-effect="non-scaling-stroke"  transform=" translate(-200.03, -173.43)" d="M 187.070312 165.953125 L 200.027344 158.472656 L 212.984375 165.953125 L 212.984375 180.910156 L 200.027344 188.390625 L 187.070312 180.910156 L 187.070312 165.953125" stroke-linecap="round" />
</g>
		<g transform="matrix(1.33 0 0 1.33 -2.3 -49.46)"  >
<path style="stroke: none; stroke-width: 1; stroke-dasharray: none; stroke-linecap: butt; stroke-dashoffset: 0; stroke-linejoin: miter; stroke-miterlimit: 4; fill: rgb(138,215,187); fill-rule: nonzero; opacity: 1;" vector-effect="non-scaling-stroke"  transform=" translate(-186.52, -149.98)" d="M 173.5625 142.503906 L 186.515625 135.023438 L 199.472656 142.503906 L 199.472656 157.464844 L 186.515625 164.945312 L 173.5625 157.464844 L 173.5625 142.503906" stroke-linecap="round" />
</g>
		<g transform="matrix(1.33 0 0 1.33 -15.52 -8.31)"  >
<path style="stroke: none; stroke-width: 1; stroke-dasharray: none; stroke-linecap: butt; stroke-dashoffset: 0; stroke-linejoin: miter; stroke-miterlimit: 4; fill: rgb(47,116,142); fill-rule: nonzero; opacity: 1;" vector-effect="non-scaling-stroke"  transform=" translate(-176.6, -180.85)" d="M 176.597656 165.890625 L 163.644531 173.371094 L 163.644531 188.332031 L 176.597656 195.8125 L 189.554688 188.332031 L 189.554688 173.371094 Z M 176.597656 166.921875 L 188.660156 173.886719 L 188.660156 187.8125 L 176.597656 194.777344 L 164.539062 187.8125 L 164.539062 173.886719 L 176.597656 166.921875" stroke-linecap="round" />
</g>
		<g transform="matrix(1.33 0 0 1.33 21.26 -18.2)"  >
<path style="stroke: none; stroke-width: 1; stroke-dasharray: none; stroke-linecap: butt; stroke-dashoffset: 0; stroke-linejoin: miter; stroke-miterlimit: 4; fill: rgb(47,116,142); fill-rule: nonzero; opacity: 1;" vector-effect="non-scaling-stroke"  transform=" translate(-204.19, -173.43)" d="M 204.183594 158.472656 L 191.230469 165.953125 L 191.230469 180.910156 L 204.183594 188.390625 L 217.140625 180.910156 L 217.140625 165.953125 Z M 204.183594 159.503906 L 216.246094 166.46875 L 216.246094 180.394531 L 204.183594 187.359375 L 192.125 180.394531 L 192.125 166.46875 L 204.183594 159.503906" stroke-linecap="round" />
</g>
		<g transform="matrix(1.33 0 0 1.33 -12.63 -57.74)"  >
<path style="stroke: none; stroke-width: 1; stroke-dasharray: none; stroke-linecap: butt; stroke-dashoffset: 0; stroke-linejoin: miter; stroke-miterlimit: 4; fill: rgb(47,116,142); fill-rule: nonzero; opacity: 1;" vector-effect="non-scaling-stroke"  transform=" translate(-178.77, -143.77)" d="M 178.765625 128.8125 L 165.808594 136.292969 L 165.808594 151.253906 L 178.765625 158.734375 L 191.722656 151.253906 L 191.722656 136.292969 Z M 178.765625 129.847656 L 190.828125 136.808594 L 190.828125 150.738281 L 178.765625 157.699219 L 166.707031 150.738281 L 166.707031 136.808594 L 178.765625 129.847656" stroke-linecap="round" />
</g>
		<g transform="matrix(1.33 0 0 1.33 22.15 -55.59)"  >
<path style="stroke: none; stroke-width: 1; stroke-dasharray: none; stroke-linecap: butt; stroke-dashoffset: 0; stroke-linejoin: miter; stroke-miterlimit: 4; fill: rgb(47,116,142); fill-rule: nonzero; opacity: 1;" vector-effect="non-scaling-stroke"  transform=" translate(-204.86, -145.39)" d="M 204.855469 141.949219 L 201.875 143.671875 L 201.875 147.113281 L 204.855469 148.832031 L 207.835938 147.113281 L 207.835938 143.671875 Z M 204.855469 142.1875 L 207.628906 143.789062 L 207.628906 146.992188 L 204.855469 148.597656 L 202.082031 146.992188 L 202.082031 143.789062 L 204.855469 142.1875" stroke-linecap="round" />
</g>
		<g transform="matrix(1.33 0 0 1.33 30.57 -45.73)"  >
<path style="stroke: none; stroke-width: 1; stroke-dasharray: none; stroke-linecap: butt; stroke-dashoffset: 0; stroke-linejoin: miter; stroke-miterlimit: 4; fill: rgb(47,116,142); fill-rule: nonzero; opacity: 1;" vector-effect="non-scaling-stroke"  transform=" translate(-211.17, -152.78)" d="M 206.242188 149.9375 L 211.167969 147.089844 L 216.097656 149.9375 L 216.097656 155.625 L 211.167969 158.472656 L 206.242188 155.625 L 206.242188 149.9375" stroke-linecap="round" />
</g>
		<g transform="matrix(1.33 0 0 1.33 43.14 -32.03)"  >
<path style="stroke: none; stroke-width: 1; stroke-dasharray: none; stroke-linecap: butt; stroke-dashoffset: 0; stroke-linejoin: miter; stroke-miterlimit: 4; fill: rgb(0,74,173); fill-rule: nonzero; opacity: 1;" vector-effect="non-scaling-stroke"  transform=" translate(-220.59, -163.06)" d="M 217.789062 161.441406 L 220.59375 159.824219 L 223.394531 161.441406 L 223.394531 164.679688 L 220.59375 166.300781 L 217.789062 164.679688 L 217.789062 161.441406" stroke-linecap="round" />
</g>
		<g transform="matrix(1.33 0 0 1.33 39.4 -55.59)"  >
<path style="stroke: none; stroke-width: 1; stroke-dasharray: none; stroke-linecap: butt; stroke-dashoffset: 0; stroke-linejoin: miter; stroke-miterlimit: 4; fill: rgb(0,74,173); fill-rule: nonzero; opacity: 1;" vector-effect="non-scaling-stroke"  transform=" translate(-217.79, -145.39)" d="M 216.386719 144.582031 L 217.789062 143.773438 L 219.191406 144.582031 L 219.191406 146.199219 L 217.789062 147.011719 L 216.386719 146.199219 L 216.386719 144.582031" stroke-linecap="round" />
</g>
		<g transform="matrix(1.33 0 0 1.33 46.84 -33.83)"  >
<path style="stroke: none; stroke-width: 1; stroke-dasharray: none; stroke-linecap: butt; stroke-dashoffset: 0; stroke-linejoin: miter; stroke-miterlimit: 4; fill: rgb(47,116,142); fill-rule: nonzero; opacity: 1;" vector-effect="non-scaling-stroke"  transform=" translate(-223.37, -161.71)" d="M 223.367188 158.265625 L 220.386719 159.988281 L 220.386719 163.429688 L 223.367188 165.148438 L 226.347656 163.429688 L 226.347656 159.988281 Z M 223.367188 158.503906 L 226.140625 160.105469 L 226.140625 163.3125 L 223.367188 164.914062 L 220.59375 163.3125 L 220.59375 160.105469 L 223.367188 158.503906" stroke-linecap="round" />
</g>
		<g transform="matrix(1.33 0 0 1.33 -57.77 -25.01)"  >
<path style="stroke: none; stroke-width: 1; stroke-dasharray: none; stroke-linecap: butt; stroke-dashoffset: 0; stroke-linejoin: miter; stroke-miterlimit: 4; fill: rgb(47,116,142); fill-rule: nonzero; opacity: 1;" vector-effect="non-scaling-stroke"  transform=" translate(-144.91, -168.33)" d="M 144.910156 171.328125 L 147.507812 169.828125 L 147.507812 166.828125 L 144.910156 165.324219 L 142.3125 166.828125 L 142.3125 169.828125 Z M 144.910156 171.117188 L 142.488281 169.722656 L 142.488281 166.929688 L 144.910156 165.535156 L 147.328125 166.929688 L 147.328125 169.722656 L 144.910156 171.117188" stroke-linecap="round" />
</g>
		<g transform="matrix(1.33 0 0 1.33 -50.44 -33.6)"  >
<path style="stroke: none; stroke-width: 1; stroke-dasharray: none; stroke-linecap: butt; stroke-dashoffset: 0; stroke-linejoin: miter; stroke-miterlimit: 4; fill: rgb(47,116,142); fill-rule: nonzero; opacity: 1;" vector-effect="non-scaling-stroke"  transform=" translate(-150.41, -161.88)" d="M 146.117188 164.363281 L 150.414062 166.84375 L 154.707031 164.363281 L 154.707031 159.402344 L 150.414062 156.925781 L 146.117188 159.402344 L 146.117188 164.363281" stroke-linecap="round" />
</g>
		<g transform="matrix(1.33 0 0 1.33 -39.48 -45.54)"  >
<path style="stroke: none; stroke-width: 1; stroke-dasharray: none; stroke-linecap: butt; stroke-dashoffset: 0; stroke-linejoin: miter; stroke-miterlimit: 4; fill: rgb(0,74,173); fill-rule: nonzero; opacity: 1;" vector-effect="non-scaling-stroke"  transform=" translate(-158.63, -152.92)" d="M 156.183594 154.332031 L 158.625 155.746094 L 161.070312 154.332031 L 161.070312 151.511719 L 158.625 150.101562 L 156.183594 151.511719 L 156.183594 154.332031" stroke-linecap="round" />
</g>
		<g transform="matrix(1.33 0 0 1.33 -42.74 -25.01)"  >
<path style="stroke: none; stroke-width: 1; stroke-dasharray: none; stroke-linecap: butt; stroke-dashoffset: 0; stroke-linejoin: miter; stroke-miterlimit: 4; fill: rgb(0,74,173); fill-rule: nonzero; opacity: 1;" vector-effect="non-scaling-stroke"  transform=" translate(-156.18, -168.33)" d="M 154.960938 169.03125 L 156.183594 169.738281 L 157.402344 169.03125 L 157.402344 167.621094 L 156.183594 166.914062 L 154.960938 167.621094 L 154.960938 169.03125" stroke-linecap="round" />
</g>
		<g transform="matrix(1.33 0 0 1.33 10.61 -71.1)"  >
<path style="stroke: none; stroke-width: 1; stroke-dasharray: none; stroke-linecap: butt; stroke-dashoffset: 0; stroke-linejoin: miter; stroke-miterlimit: 4; fill: rgb(0,74,173); fill-rule: nonzero; opacity: 1;" vector-effect="non-scaling-stroke"  transform=" translate(-196.2, -133.76)" d="M 193.699219 135.199219 L 196.199219 136.644531 L 198.699219 135.199219 L 198.699219 132.3125 L 196.199219 130.867188 L 193.699219 132.3125 L 193.699219 135.199219" stroke-linecap="round" />
</g>
		<g transform="matrix(1.33 0 0 1.33 -51.92 -68.35)"  >
<path style="stroke: none; stroke-width: 1; stroke-dasharray: none; stroke-linecap: butt; stroke-dashoffset: 0; stroke-linejoin: miter; stroke-miterlimit: 4; fill: rgb(47,116,142); fill-rule: nonzero; opacity: 1;" vector-effect="non-scaling-stroke"  transform=" translate(-149.3, -135.82)" d="M 149.296875 131.667969 L 145.699219 133.746094 L 145.699219 137.898438 L 149.296875 139.976562 L 152.894531 137.898438 L 152.894531 133.746094 Z M 149.296875 131.957031 L 152.644531 133.886719 L 152.644531 137.753906 L 149.296875 139.6875 L 145.949219 137.753906 L 145.949219 133.886719 L 149.296875 131.957031" stroke-linecap="round" />
</g>
		<g transform="matrix(1.33 0 0 1.33 -39.05 -65.09)"  >
<path style="stroke: none; stroke-width: 1; stroke-dasharray: none; stroke-linecap: butt; stroke-dashoffset: 0; stroke-linejoin: miter; stroke-miterlimit: 4; fill: rgb(138,215,187); fill-rule: nonzero; opacity: 1;" vector-effect="non-scaling-stroke"  transform=" translate(-158.95, -138.27)" d="M 155.992188 136.558594 L 158.953125 134.847656 L 161.910156 136.558594 L 161.910156 139.976562 L 158.953125 141.683594 L 155.992188 139.976562 L 155.992188 136.558594" stroke-linecap="round" />
</g>
		<g transform="matrix(1.33 0 0 1.33 -37.7 -72.4)"  >
<path style="stroke: none; stroke-width: 1; stroke-dasharray: none; stroke-linecap: butt; stroke-dashoffset: 0; stroke-linejoin: miter; stroke-miterlimit: 4; fill: rgb(0,74,173); fill-rule: nonzero; opacity: 1;" vector-effect="non-scaling-stroke"  transform=" translate(-159.97, -132.78)" d="M 159.125 132.296875 L 159.96875 131.8125 L 160.808594 132.296875 L 160.808594 133.269531 L 159.96875 133.753906 L 159.125 133.269531 L 159.125 132.296875" stroke-linecap="round" />
</g>
		<g transform="matrix(1.33 0 0 1.33 -36.26 -43.97)"  >
<path style="stroke: none; stroke-width: 1; stroke-dasharray: none; stroke-linecap: butt; stroke-dashoffset: 0; stroke-linejoin: miter; stroke-miterlimit: 4; fill: rgb(47,116,142); fill-rule: nonzero; opacity: 1;" vector-effect="non-scaling-stroke"  transform=" translate(-161.04, -154.1)" d="M 161.042969 157.101562 L 163.644531 155.601562 L 163.644531 152.601562 L 161.042969 151.101562 L 158.445312 152.601562 L 158.445312 155.601562 Z M 161.042969 156.894531 L 158.625 155.5 L 158.625 152.707031 L 161.042969 151.308594 L 163.464844 152.707031 L 163.464844 155.5 L 161.042969 156.894531" stroke-linecap="round" />
</g>
		<g transform="matrix(1.33 0 0 1.33 -12.63 -83.4)"  >
<path style="stroke: none; stroke-width: 1; stroke-dasharray: none; stroke-linecap: butt; stroke-dashoffset: 0; stroke-linejoin: miter; stroke-miterlimit: 4; fill: rgb(47,116,142); fill-rule: nonzero; opacity: 1;" vector-effect="non-scaling-stroke"  transform=" translate(-178.77, -124.53)" d="M 179.210938 129.847656 L 178.320312 129.847656 L 178.320312 119.21875 L 179.210938 119.21875 L 179.210938 129.847656" stroke-linecap="round" />
</g>
		<g transform="matrix(1.33 0 0 1.33 -12.63 -90.4)"  >
<path style="stroke: none; stroke-width: 1; stroke-dasharray: none; stroke-linecap: butt; stroke-dashoffset: 0; stroke-linejoin: miter; stroke-miterlimit: 4; fill: rgb(47,116,142); fill-rule: nonzero; opacity: 1;" vector-effect="non-scaling-stroke"  transform=" translate(-178.77, -119.28)" d="M 180.039062 119.28125 C 180.039062 118.578125 179.46875 118.007812 178.765625 118.007812 C 178.0625 118.007812 177.492188 118.578125 177.492188 119.28125 C 177.492188 119.984375 178.0625 120.554688 178.765625 120.554688 C 179.46875 120.554688 180.039062 119.984375 180.039062 119.28125" stroke-linecap="round" />
</g>
		<g transform="matrix(1.33 0 0 1.33 -45.59 -57.74)"  >
<path style="stroke: none; stroke-width: 1; stroke-dasharray: none; stroke-linecap: butt; stroke-dashoffset: 0; stroke-linejoin: miter; stroke-miterlimit: 4; fill: rgb(47,116,142); fill-rule: nonzero; opacity: 1;" vector-effect="non-scaling-stroke"  transform=" translate(-154.05, -143.77)" d="M 165.808594 144.21875 L 142.289062 144.21875 L 142.289062 143.328125 L 165.808594 143.328125 L 165.808594 144.21875" stroke-linecap="round" />
</g>
		<g transform="matrix(1.33 0 0 1.33 -61.18 -57.74)" clip-path="url(#CLIPPATH_7)"  >
<clipPath id="CLIPPATH_7" >
	<path transform="matrix(1 0 0 1 0.19 0.23) translate(-142.54, -144)" id="1" d="M 141.078125 142 L 144 142 L 144 146 L 141.078125 146 Z M 141.078125 142" stroke-linecap="round" />
</clipPath>
<path style="stroke: none; stroke-width: 1; stroke-dasharray: none; stroke-linecap: butt; stroke-dashoffset: 0; stroke-linejoin: miter; stroke-miterlimit: 4; fill: rgb(47,116,142); fill-rule: nonzero; opacity: 1;" vector-effect="non-scaling-stroke"  transform=" translate(-142.35, -143.77)" d="M 142.351562 142.5 C 141.648438 142.5 141.078125 143.070312 141.078125 143.773438 C 141.078125 144.476562 141.648438 145.046875 142.351562 145.046875 C 143.054688 145.046875 143.625 144.476562 143.625 143.773438 C 143.625 143.070312 143.054688 142.5 142.351562 142.5" stroke-linecap="round" />
</g>
		<g transform="matrix(1.33 0 0 1.33 -15.52 19.98)"  >
<path style="stroke: none; stroke-width: 1; stroke-dasharray: none; stroke-linecap: butt; stroke-dashoffset: 0; stroke-linejoin: miter; stroke-miterlimit: 4; fill: rgb(47,116,142); fill-rule: nonzero; opacity: 1;" vector-effect="non-scaling-stroke"  transform=" translate(-176.6, -202.07)" d="M 177.042969 208.738281 L 176.152344 208.738281 L 176.152344 195.394531 L 177.042969 195.394531 L 177.042969 208.738281" stroke-linecap="round" />
</g>
		<g transform="matrix(1.33 0 0 1.33 -15.52 28.79)" clip-path="url(#CLIPPATH_8)"  >
<clipPath id="CLIPPATH_8" >
	<path transform="matrix(1 0 0 1 -0.02 -0.06) translate(-176.58, -208.62)" id="b42cb2882f" d="M 175.242188 207.285156 L 177.917969 207.285156 L 177.917969 209.949219 L 175.242188 209.949219 Z M 175.242188 207.285156" stroke-linecap="round" />
</clipPath>
<path style="stroke: none; stroke-width: 1; stroke-dasharray: none; stroke-linecap: butt; stroke-dashoffset: 0; stroke-linejoin: miter; stroke-miterlimit: 4; fill: rgb(47,116,142); fill-rule: nonzero; opacity: 1;" vector-effect="non-scaling-stroke"  transform=" translate(-176.6, -208.68)" d="M 175.324219 208.675781 C 175.324219 209.378906 175.894531 209.949219 176.597656 209.949219 C 177.300781 209.949219 177.871094 209.378906 177.871094 208.675781 C 177.871094 207.972656 177.300781 207.402344 176.597656 207.402344 C 175.894531 207.402344 175.324219 207.972656 175.324219 208.675781" stroke-linecap="round" />
</g>
		<g transform="matrix(1.33 0 0 1.33 55.56 -18.2)"  >
<path style="stroke: none; stroke-width: 1; stroke-dasharray: none; stroke-linecap: butt; stroke-dashoffset: 0; stroke-linejoin: miter; stroke-miterlimit: 4; fill: rgb(47,116,142); fill-rule: nonzero; opacity: 1;" vector-effect="non-scaling-stroke"  transform=" translate(-229.91, -173.43)" d="M 242.679688 173.878906 L 217.140625 173.878906 L 217.140625 172.984375 L 242.679688 172.984375 L 242.679688 173.878906" stroke-linecap="round" />
</g>
		<g transform="matrix(1.33 0 0 1.33 72.5 -18.2)" clip-path="url(#CLIPPATH_9)"  >
<clipPath id="CLIPPATH_9" >
	<path transform="matrix(1 0 0 1 -0.1 -0.02) translate(-242.51, -173.42)" id="3.74e+73" d="M 241.199219 172.078125 L 243.828125 172.078125 L 243.828125 174.753906 L 241.199219 174.753906 Z M 241.199219 172.078125" stroke-linecap="round" />
</clipPath>
<path style="stroke: none; stroke-width: 1; stroke-dasharray: none; stroke-linecap: butt; stroke-dashoffset: 0; stroke-linejoin: miter; stroke-miterlimit: 4; fill: rgb(47,116,142); fill-rule: nonzero; opacity: 1;" vector-effect="non-scaling-stroke"  transform=" translate(-242.62, -173.43)" d="M 242.617188 174.703125 C 243.320312 174.703125 243.890625 174.132812 243.890625 173.429688 C 243.890625 172.726562 243.320312 172.160156 242.617188 172.160156 C 241.914062 172.160156 241.34375 172.726562 241.34375 173.429688 C 241.34375 174.132812 241.914062 174.703125 242.617188 174.703125" stroke-linecap="round" />
</g>
		<g transform="matrix(1.33 0 0 1.33 41.71 -6.06)"  >
<path style="stroke: none; stroke-width: 1; stroke-dasharray: none; stroke-linecap: butt; stroke-dashoffset: 0; stroke-linejoin: miter; stroke-miterlimit: 4; fill: rgb(47,116,142); fill-rule: nonzero; opacity: 1;" vector-effect="non-scaling-stroke"  transform=" translate(-219.52, -182.54)" d="M 222.214844 184.894531 L 216.335938 180.921875 L 216.835938 180.183594 L 222.710938 184.15625 L 222.214844 184.894531" stroke-linecap="round" />
</g>
		<g transform="matrix(1.33 0 0 1.33 45.56 -3.46)"  >
<path style="stroke: none; stroke-width: 1; stroke-dasharray: none; stroke-linecap: butt; stroke-dashoffset: 0; stroke-linejoin: miter; stroke-miterlimit: 4; fill: rgb(47,116,142); fill-rule: nonzero; opacity: 1;" vector-effect="non-scaling-stroke"  transform=" translate(-222.41, -184.49)" d="M 221.699219 185.546875 C 222.28125 185.9375 223.070312 185.785156 223.464844 185.203125 C 223.859375 184.621094 223.707031 183.828125 223.125 183.433594 C 222.542969 183.042969 221.75 183.195312 221.355469 183.777344 C 220.960938 184.359375 221.117188 185.152344 221.699219 185.546875" stroke-linecap="round" />
</g>
		<g transform="matrix(1.33 0 0 1.33 -38.13 49.18)"  >
<path style="stroke: none; stroke-width: 1; stroke-dasharray: none; stroke-linecap: butt; stroke-dashoffset: 0; stroke-linejoin: miter; stroke-miterlimit: 4; fill: rgb(113,209,234); fill-rule: nonzero; opacity: 1;" vector-effect="non-scaling-stroke"  transform=" translate(-7.17, 7.01)" d="M 13.625 -4.480469 L 13.625 -14.046875 C 13.625 -16.539062 11.609375 -18.527344 9.144531 -18.527344 L 5.195312 -18.527344 C 2.703125 -18.527344 0.714844 -16.539062 0.714844 -14.046875 L 0.714844 -4.480469 C 0.714844 -1.988281 2.703125 0.0273438 5.195312 0.0273438 L 7.101562 0.0273438 L 7.261719 0.425781 C 8.402344 2.914062 10.894531 4.503906 13.625 4.503906 L 11.398438 -0.609375 C 12.722656 -1.378906 13.625 -2.835938 13.625 -4.480469 Z M 5.195312 -14.046875 L 9.144531 -14.046875 L 9.144531 -4.480469 L 5.195312 -4.480469 Z M 5.195312 -14.046875" stroke-linecap="round" />
</g>
		<g transform="matrix(1.33 0 0 1.33 -18.84 46.16)"  >
<path style="stroke: none; stroke-width: 1; stroke-dasharray: none; stroke-linecap: butt; stroke-dashoffset: 0; stroke-linejoin: miter; stroke-miterlimit: 4; fill: rgb(113,209,234); fill-rule: nonzero; opacity: 1;" vector-effect="non-scaling-stroke"  transform=" translate(-7.28, 9.28)" d="M 9.25 -18.554688 L 9.25 -4.480469 L 5.300781 -4.480469 L 5.300781 -18.554688 L 0.820312 -18.554688 L 0.820312 -4.480469 C 0.820312 -1.988281 2.808594 0 5.300781 0 L 9.25 0 C 11.714844 0 13.730469 -1.988281 13.730469 -4.480469 L 13.730469 -18.554688 Z M 9.25 -18.554688" stroke-linecap="round" />
</g>
		<g transform="matrix(1.33 0 0 1.33 0.73 46.16)"  >
<path style="stroke: none; stroke-width: 1; stroke-dasharray: none; stroke-linecap: butt; stroke-dashoffset: 0; stroke-linejoin: miter; stroke-miterlimit: 4; fill: rgb(113,209,234); fill-rule: nonzero; opacity: 1;" vector-effect="non-scaling-stroke"  transform=" translate(-7.38, 9.28)" d="M 12.378906 -10.046875 C 12.589844 -10.601562 12.722656 -11.183594 12.722656 -11.792969 L 12.722656 -14.046875 C 12.722656 -16.539062 10.707031 -18.554688 8.214844 -18.554688 L 0.925781 -18.554688 L 0.925781 0 L 9.355469 0 C 11.820312 0 13.835938 -1.988281 13.835938 -4.480469 L 13.835938 -6.730469 C 13.835938 -8.058594 13.277344 -9.222656 12.378906 -10.046875 Z M 5.40625 -14.046875 L 8.214844 -14.046875 L 8.214844 -11.238281 L 5.40625 -11.238281 Z M 5.40625 -4.480469 L 5.40625 -6.730469 L 9.355469 -6.730469 L 9.355469 -4.480469 Z M 5.40625 -4.480469" stroke-linecap="round" />
</g>
		<g transform="matrix(1.33 0 0 1.33 14.05 46.16)"  >
<path style="stroke: none; stroke-width: 1; stroke-dasharray: none; stroke-linecap: butt; stroke-dashoffset: 0; stroke-linejoin: miter; stroke-miterlimit: 4; fill: rgb(113,209,234); fill-rule: nonzero; opacity: 1;" vector-effect="non-scaling-stroke"  transform=" translate(-3.12, 9.28)" d="M 3.816406 -18.554688 C 2.171875 -18.554688 0.875 -17.226562 0.875 -15.585938 L 0.875 0 L 5.355469 0 L 5.355469 -18.554688 Z M 3.816406 -18.554688" stroke-linecap="round" />
</g>
		<g transform="matrix(1.33 0 0 1.33 26.68 46.16)"  >
<path style="stroke: none; stroke-width: 1; stroke-dasharray: none; stroke-linecap: butt; stroke-dashoffset: 0; stroke-linejoin: miter; stroke-miterlimit: 4; fill: rgb(113,209,234); fill-rule: nonzero; opacity: 1;" vector-effect="non-scaling-stroke"  transform=" translate(-6.28, 9.28)" d="M 11.847656 -14.046875 L 11.847656 -18.554688 L 5.195312 -18.554688 C 2.703125 -18.554688 0.714844 -16.539062 0.714844 -14.046875 L 0.714844 -4.480469 C 0.714844 -1.988281 2.703125 0 5.195312 0 L 11.847656 0 L 11.847656 -4.480469 L 5.195312 -4.480469 L 5.195312 -14.046875 Z M 11.847656 -14.046875" stroke-linecap="round" />
</g>
		<g transform="matrix(1.33 0 0 1.33 -50.89 79.6)"  >
<path style="stroke: none; stroke-width: 1; stroke-dasharray: none; stroke-linecap: butt; stroke-dashoffset: 0; stroke-linejoin: miter; stroke-miterlimit: 4; fill: rgb(138,215,187); fill-rule: nonzero; opacity: 1;" vector-effect="non-scaling-stroke"  transform=" translate(-4.29, 4.67)" d="M 4.234375 0.125 C 3.648438 0.125 3.078125 0.0625 2.515625 -0.0625 C 1.953125 -0.195312 1.460938 -0.394531 1.046875 -0.65625 C 0.835938 -0.789062 0.710938 -0.953125 0.671875 -1.140625 C 0.628906 -1.335938 0.644531 -1.523438 0.71875 -1.703125 C 0.789062 -1.878906 0.910156 -2 1.078125 -2.0625 C 1.242188 -2.125 1.429688 -2.09375 1.640625 -1.96875 C 2.023438 -1.726562 2.4375 -1.554688 2.875 -1.453125 C 3.3125 -1.347656 3.765625 -1.296875 4.234375 -1.296875 C 4.929688 -1.296875 5.4375 -1.410156 5.75 -1.640625 C 6.070312 -1.878906 6.234375 -2.1875 6.234375 -2.5625 C 6.234375 -2.863281 6.117188 -3.101562 5.890625 -3.28125 C 5.671875 -3.457031 5.289062 -3.601562 4.75 -3.71875 L 3.28125 -4.03125 C 1.625 -4.382812 0.796875 -5.234375 0.796875 -6.578125 C 0.796875 -7.160156 0.945312 -7.671875 1.25 -8.109375 C 1.5625 -8.546875 1.988281 -8.878906 2.53125 -9.109375 C 3.082031 -9.347656 3.71875 -9.46875 4.4375 -9.46875 C 4.96875 -9.46875 5.472656 -9.398438 5.953125 -9.265625 C 6.429688 -9.140625 6.859375 -8.945312 7.234375 -8.6875 C 7.410156 -8.5625 7.515625 -8.410156 7.546875 -8.234375 C 7.585938 -8.054688 7.566406 -7.890625 7.484375 -7.734375 C 7.398438 -7.578125 7.269531 -7.46875 7.09375 -7.40625 C 6.925781 -7.351562 6.726562 -7.394531 6.5 -7.53125 C 6.175781 -7.707031 5.847656 -7.835938 5.515625 -7.921875 C 5.179688 -8.003906 4.816406 -8.046875 4.421875 -8.046875 C 3.816406 -8.046875 3.34375 -7.914062 3 -7.65625 C 2.65625 -7.40625 2.484375 -7.070312 2.484375 -6.65625 C 2.484375 -6.332031 2.585938 -6.078125 2.796875 -5.890625 C 3.003906 -5.703125 3.363281 -5.554688 3.875 -5.453125 L 5.328125 -5.140625 C 6.203125 -4.953125 6.851562 -4.660156 7.28125 -4.265625 C 7.707031 -3.867188 7.921875 -3.335938 7.921875 -2.671875 C 7.921875 -2.117188 7.769531 -1.628906 7.46875 -1.203125 C 7.164062 -0.773438 6.738281 -0.445312 6.1875 -0.21875 C 5.632812 0.0078125 4.984375 0.125 4.234375 0.125 Z M 4.234375 0.125" stroke-linecap="round" />
</g>
		<g transform="matrix(1.33 0 0 1.33 -40.38 81.51)"  >
<path style="stroke: none; stroke-width: 1; stroke-dasharray: none; stroke-linecap: butt; stroke-dashoffset: 0; stroke-linejoin: miter; stroke-miterlimit: 4; fill: rgb(138,215,187); fill-rule: nonzero; opacity: 1;" vector-effect="non-scaling-stroke"  transform=" translate(-3.81, 3.24)" d="M 3.8125 0.125 C 3.144531 0.125 2.5625 -0.0078125 2.0625 -0.28125 C 1.570312 -0.550781 1.1875 -0.941406 0.90625 -1.453125 C 0.632812 -1.960938 0.5 -2.5625 0.5 -3.25 C 0.5 -3.9375 0.632812 -4.53125 0.90625 -5.03125 C 1.1875 -5.539062 1.570312 -5.929688 2.0625 -6.203125 C 2.5625 -6.472656 3.144531 -6.609375 3.8125 -6.609375 C 4.488281 -6.609375 5.070312 -6.472656 5.5625 -6.203125 C 6.0625 -5.929688 6.445312 -5.539062 6.71875 -5.03125 C 6.988281 -4.53125 7.125 -3.9375 7.125 -3.25 C 7.125 -2.5625 6.988281 -1.960938 6.71875 -1.453125 C 6.445312 -0.941406 6.0625 -0.550781 5.5625 -0.28125 C 5.070312 -0.0078125 4.488281 0.125 3.8125 0.125 Z M 3.8125 -1.125 C 4.3125 -1.125 4.707031 -1.300781 5 -1.65625 C 5.300781 -2.019531 5.453125 -2.550781 5.453125 -3.25 C 5.453125 -3.957031 5.300781 -4.484375 5 -4.828125 C 4.707031 -5.179688 4.3125 -5.359375 3.8125 -5.359375 C 3.320312 -5.359375 2.925781 -5.179688 2.625 -4.828125 C 2.320312 -4.484375 2.171875 -3.957031 2.171875 -3.25 C 2.171875 -2.550781 2.320312 -2.019531 2.625 -1.65625 C 2.925781 -1.300781 3.320312 -1.125 3.8125 -1.125 Z M 3.8125 -1.125" stroke-linecap="round" />
</g>
		<g transform="matrix(1.33 0 0 1.33 -31.91 79.61)"  >
<path style="stroke: none; stroke-width: 1; stroke-dasharray: none; stroke-linecap: butt; stroke-dashoffset: 0; stroke-linejoin: miter; stroke-miterlimit: 4; fill: rgb(138,215,187); fill-rule: nonzero; opacity: 1;" vector-effect="non-scaling-stroke"  transform=" translate(-2.54, 4.66)" d="M 3.078125 0.125 C 1.597656 0.125 0.859375 -0.695312 0.859375 -2.34375 L 0.859375 -8.609375 C 0.859375 -9.171875 1.132812 -9.453125 1.6875 -9.453125 C 2.238281 -9.453125 2.515625 -9.171875 2.515625 -8.609375 L 2.515625 -2.421875 C 2.515625 -1.628906 2.847656 -1.234375 3.515625 -1.234375 C 3.585938 -1.234375 3.648438 -1.234375 3.703125 -1.234375 C 3.765625 -1.242188 3.828125 -1.253906 3.890625 -1.265625 C 4.015625 -1.273438 4.097656 -1.238281 4.140625 -1.15625 C 4.191406 -1.070312 4.21875 -0.90625 4.21875 -0.65625 C 4.21875 -0.425781 4.171875 -0.25 4.078125 -0.125 C 3.992188 -0.0078125 3.847656 0.0625 3.640625 0.09375 C 3.453125 0.113281 3.265625 0.125 3.078125 0.125 Z M 3.078125 0.125" stroke-linecap="round" />
</g>
		<g transform="matrix(1.33 0 0 1.33 -24.57 81.53)"  >
<path style="stroke: none; stroke-width: 1; stroke-dasharray: none; stroke-linecap: butt; stroke-dashoffset: 0; stroke-linejoin: miter; stroke-miterlimit: 4; fill: rgb(138,215,187); fill-rule: nonzero; opacity: 1;" vector-effect="non-scaling-stroke"  transform=" translate(-3.82, 3.23)" d="M 3.203125 0.125 C 1.617188 0.125 0.828125 -0.765625 0.828125 -2.546875 L 0.828125 -5.75 C 0.828125 -6.300781 1.097656 -6.578125 1.640625 -6.578125 C 2.203125 -6.578125 2.484375 -6.300781 2.484375 -5.75 L 2.484375 -2.515625 C 2.484375 -2.054688 2.570312 -1.71875 2.75 -1.5 C 2.9375 -1.28125 3.234375 -1.171875 3.640625 -1.171875 C 4.085938 -1.171875 4.453125 -1.320312 4.734375 -1.625 C 5.015625 -1.925781 5.15625 -2.328125 5.15625 -2.828125 L 5.15625 -5.75 C 5.15625 -6.300781 5.425781 -6.578125 5.96875 -6.578125 C 6.53125 -6.578125 6.8125 -6.300781 6.8125 -5.75 L 6.8125 -0.734375 C 6.8125 -0.171875 6.539062 0.109375 6 0.109375 C 5.457031 0.109375 5.1875 -0.171875 5.1875 -0.734375 L 5.1875 -0.96875 C 4.757812 -0.238281 4.097656 0.125 3.203125 0.125 Z M 3.203125 0.125" stroke-linecap="round" />
</g>
		<g transform="matrix(1.33 0 0 1.33 -16.06 80.24)"  >
<path style="stroke: none; stroke-width: 1; stroke-dasharray: none; stroke-linecap: butt; stroke-dashoffset: 0; stroke-linejoin: miter; stroke-miterlimit: 4; fill: rgb(138,215,187); fill-rule: nonzero; opacity: 1;" vector-effect="non-scaling-stroke"  transform=" translate(-2.54, 4.2)" d="M 3.828125 0.125 C 2.117188 0.125 1.265625 -0.71875 1.265625 -2.40625 L 1.265625 -5.234375 L 0.5625 -5.234375 C 0.125 -5.234375 -0.09375 -5.441406 -0.09375 -5.859375 C -0.09375 -6.273438 0.125 -6.484375 0.5625 -6.484375 L 1.265625 -6.484375 L 1.265625 -7.6875 C 1.265625 -8.238281 1.539062 -8.515625 2.09375 -8.515625 C 2.644531 -8.515625 2.921875 -8.238281 2.921875 -7.6875 L 2.921875 -6.484375 L 4.3125 -6.484375 C 4.757812 -6.484375 4.984375 -6.273438 4.984375 -5.859375 C 4.984375 -5.441406 4.757812 -5.234375 4.3125 -5.234375 L 2.921875 -5.234375 L 2.921875 -2.5 C 2.921875 -2.082031 3.007812 -1.765625 3.1875 -1.546875 C 3.375 -1.335938 3.675781 -1.234375 4.09375 -1.234375 C 4.238281 -1.234375 4.367188 -1.242188 4.484375 -1.265625 C 4.597656 -1.296875 4.703125 -1.316406 4.796875 -1.328125 C 4.898438 -1.335938 4.988281 -1.300781 5.0625 -1.21875 C 5.132812 -1.144531 5.171875 -0.992188 5.171875 -0.765625 C 5.171875 -0.585938 5.140625 -0.429688 5.078125 -0.296875 C 5.023438 -0.160156 4.921875 -0.0664062 4.765625 -0.015625 C 4.648438 0.0234375 4.5 0.0546875 4.3125 0.078125 C 4.132812 0.109375 3.972656 0.125 3.828125 0.125 Z M 3.828125 0.125" stroke-linecap="round" />
</g>
		<g transform="matrix(1.33 0 0 1.33 -10.42 79.53)"  >
<path style="stroke: none; stroke-width: 1; stroke-dasharray: none; stroke-linecap: butt; stroke-dashoffset: 0; stroke-linejoin: miter; stroke-miterlimit: 4; fill: rgb(138,215,187); fill-rule: nonzero; opacity: 1;" vector-effect="non-scaling-stroke"  transform=" translate(-1.68, 4.73)" d="M 1.6875 -7.796875 C 1.375 -7.796875 1.128906 -7.875 0.953125 -8.03125 C 0.785156 -8.1875 0.703125 -8.398438 0.703125 -8.671875 C 0.703125 -8.960938 0.785156 -9.179688 0.953125 -9.328125 C 1.128906 -9.472656 1.375 -9.546875 1.6875 -9.546875 C 2.332031 -9.546875 2.65625 -9.253906 2.65625 -8.671875 C 2.65625 -8.085938 2.332031 -7.796875 1.6875 -7.796875 Z M 1.6875 0.09375 C 1.414062 0.09375 1.207031 0.015625 1.0625 -0.140625 C 0.925781 -0.304688 0.859375 -0.53125 0.859375 -0.8125 L 0.859375 -5.671875 C 0.859375 -6.273438 1.132812 -6.578125 1.6875 -6.578125 C 2.238281 -6.578125 2.515625 -6.273438 2.515625 -5.671875 L 2.515625 -0.8125 C 2.515625 -0.53125 2.441406 -0.304688 2.296875 -0.140625 C 2.160156 0.015625 1.957031 0.09375 1.6875 0.09375 Z M 1.6875 0.09375" stroke-linecap="round" />
</g>
		<g transform="matrix(1.33 0 0 1.33 -3.08 81.51)"  >
<path style="stroke: none; stroke-width: 1; stroke-dasharray: none; stroke-linecap: butt; stroke-dashoffset: 0; stroke-linejoin: miter; stroke-miterlimit: 4; fill: rgb(138,215,187); fill-rule: nonzero; opacity: 1;" vector-effect="non-scaling-stroke"  transform=" translate(-3.81, 3.24)" d="M 3.8125 0.125 C 3.144531 0.125 2.5625 -0.0078125 2.0625 -0.28125 C 1.570312 -0.550781 1.1875 -0.941406 0.90625 -1.453125 C 0.632812 -1.960938 0.5 -2.5625 0.5 -3.25 C 0.5 -3.9375 0.632812 -4.53125 0.90625 -5.03125 C 1.1875 -5.539062 1.570312 -5.929688 2.0625 -6.203125 C 2.5625 -6.472656 3.144531 -6.609375 3.8125 -6.609375 C 4.488281 -6.609375 5.070312 -6.472656 5.5625 -6.203125 C 6.0625 -5.929688 6.445312 -5.539062 6.71875 -5.03125 C 6.988281 -4.53125 7.125 -3.9375 7.125 -3.25 C 7.125 -2.5625 6.988281 -1.960938 6.71875 -1.453125 C 6.445312 -0.941406 6.0625 -0.550781 5.5625 -0.28125 C 5.070312 -0.0078125 4.488281 0.125 3.8125 0.125 Z M 3.8125 -1.125 C 4.3125 -1.125 4.707031 -1.300781 5 -1.65625 C 5.300781 -2.019531 5.453125 -2.550781 5.453125 -3.25 C 5.453125 -3.957031 5.300781 -4.484375 5 -4.828125 C 4.707031 -5.179688 4.3125 -5.359375 3.8125 -5.359375 C 3.320312 -5.359375 2.925781 -5.179688 2.625 -4.828125 C 2.320312 -4.484375 2.171875 -3.957031 2.171875 -3.25 C 2.171875 -2.550781 2.320312 -2.019531 2.625 -1.65625 C 2.925781 -1.300781 3.320312 -1.125 3.8125 -1.125 Z M 3.8125 -1.125" stroke-linecap="round" />
</g>
		<g transform="matrix(1.33 0 0 1.33 7.21 81.5)"  >
<path style="stroke: none; stroke-width: 1; stroke-dasharray: none; stroke-linecap: butt; stroke-dashoffset: 0; stroke-linejoin: miter; stroke-miterlimit: 4; fill: rgb(138,215,187); fill-rule: nonzero; opacity: 1;" vector-effect="non-scaling-stroke"  transform=" translate(-3.9, 3.25)" d="M 1.6875 0.109375 C 1.132812 0.109375 0.859375 -0.171875 0.859375 -0.734375 L 0.859375 -5.75 C 0.859375 -6.300781 1.128906 -6.578125 1.671875 -6.578125 C 2.210938 -6.578125 2.484375 -6.300781 2.484375 -5.75 L 2.484375 -5.46875 C 2.703125 -5.84375 3 -6.125 3.375 -6.3125 C 3.75 -6.507812 4.171875 -6.609375 4.640625 -6.609375 C 6.171875 -6.609375 6.9375 -5.722656 6.9375 -3.953125 L 6.9375 -0.734375 C 6.9375 -0.171875 6.660156 0.109375 6.109375 0.109375 C 5.554688 0.109375 5.28125 -0.171875 5.28125 -0.734375 L 5.28125 -3.875 C 5.28125 -4.375 5.179688 -4.738281 4.984375 -4.96875 C 4.796875 -5.195312 4.503906 -5.3125 4.109375 -5.3125 C 3.617188 -5.3125 3.226562 -5.160156 2.9375 -4.859375 C 2.65625 -4.554688 2.515625 -4.148438 2.515625 -3.640625 L 2.515625 -0.734375 C 2.515625 -0.171875 2.238281 0.109375 1.6875 0.109375 Z M 1.6875 0.109375" stroke-linecap="round" />
</g>
		<g transform="matrix(1.33 0 0 1.33 23.32 79.67)"  >
<path style="stroke: none; stroke-width: 1; stroke-dasharray: none; stroke-linecap: butt; stroke-dashoffset: 0; stroke-linejoin: miter; stroke-miterlimit: 4; fill: rgb(138,215,187); fill-rule: nonzero; opacity: 1;" vector-effect="non-scaling-stroke"  transform=" translate(-4.65, 4.62)" d="M 1.875 0.109375 C 1.300781 0.109375 1.015625 -0.179688 1.015625 -0.765625 L 1.015625 -8.484375 C 1.015625 -9.054688 1.300781 -9.34375 1.875 -9.34375 L 5.078125 -9.34375 C 6.097656 -9.34375 6.882812 -9.082031 7.4375 -8.5625 C 8 -8.050781 8.28125 -7.335938 8.28125 -6.421875 C 8.28125 -5.503906 8 -4.785156 7.4375 -4.265625 C 6.882812 -3.753906 6.097656 -3.5 5.078125 -3.5 L 2.71875 -3.5 L 2.71875 -0.765625 C 2.71875 -0.179688 2.4375 0.109375 1.875 0.109375 Z M 2.71875 -4.84375 L 4.8125 -4.84375 C 6.03125 -4.84375 6.640625 -5.367188 6.640625 -6.421875 C 6.640625 -7.472656 6.03125 -8 4.8125 -8 L 2.71875 -8 Z M 2.71875 -4.84375" stroke-linecap="round" />
</g>
		<g transform="matrix(1.33 0 0 1.33 33.72 81.51)"  >
<path style="stroke: none; stroke-width: 1; stroke-dasharray: none; stroke-linecap: butt; stroke-dashoffset: 0; stroke-linejoin: miter; stroke-miterlimit: 4; fill: rgb(138,215,187); fill-rule: nonzero; opacity: 1;" vector-effect="non-scaling-stroke"  transform=" translate(-3.81, 3.24)" d="M 3.8125 0.125 C 3.144531 0.125 2.5625 -0.0078125 2.0625 -0.28125 C 1.570312 -0.550781 1.1875 -0.941406 0.90625 -1.453125 C 0.632812 -1.960938 0.5 -2.5625 0.5 -3.25 C 0.5 -3.9375 0.632812 -4.53125 0.90625 -5.03125 C 1.1875 -5.539062 1.570312 -5.929688 2.0625 -6.203125 C 2.5625 -6.472656 3.144531 -6.609375 3.8125 -6.609375 C 4.488281 -6.609375 5.070312 -6.472656 5.5625 -6.203125 C 6.0625 -5.929688 6.445312 -5.539062 6.71875 -5.03125 C 6.988281 -4.53125 7.125 -3.9375 7.125 -3.25 C 7.125 -2.5625 6.988281 -1.960938 6.71875 -1.453125 C 6.445312 -0.941406 6.0625 -0.550781 5.5625 -0.28125 C 5.070312 -0.0078125 4.488281 0.125 3.8125 0.125 Z M 3.8125 -1.125 C 4.3125 -1.125 4.707031 -1.300781 5 -1.65625 C 5.300781 -2.019531 5.453125 -2.550781 5.453125 -3.25 C 5.453125 -3.957031 5.300781 -4.484375 5 -4.828125 C 4.707031 -5.179688 4.3125 -5.359375 3.8125 -5.359375 C 3.320312 -5.359375 2.925781 -5.179688 2.625 -4.828125 C 2.320312 -4.484375 2.171875 -3.957031 2.171875 -3.25 C 2.171875 -2.550781 2.320312 -2.019531 2.625 -1.65625 C 2.925781 -1.300781 3.320312 -1.125 3.8125 -1.125 Z M 3.8125 -1.125" stroke-linecap="round" />
</g>
		<g transform="matrix(1.33 0 0 1.33 43.89 81.51)"  >
<path style="stroke: none; stroke-width: 1; stroke-dasharray: none; stroke-linecap: butt; stroke-dashoffset: 0; stroke-linejoin: miter; stroke-miterlimit: 4; fill: rgb(138,215,187); fill-rule: nonzero; opacity: 1;" vector-effect="non-scaling-stroke"  transform=" translate(-3.81, 3.24)" d="M 3.8125 0.125 C 3.144531 0.125 2.5625 -0.0078125 2.0625 -0.28125 C 1.570312 -0.550781 1.1875 -0.941406 0.90625 -1.453125 C 0.632812 -1.960938 0.5 -2.5625 0.5 -3.25 C 0.5 -3.9375 0.632812 -4.53125 0.90625 -5.03125 C 1.1875 -5.539062 1.570312 -5.929688 2.0625 -6.203125 C 2.5625 -6.472656 3.144531 -6.609375 3.8125 -6.609375 C 4.488281 -6.609375 5.070312 -6.472656 5.5625 -6.203125 C 6.0625 -5.929688 6.445312 -5.539062 6.71875 -5.03125 C 6.988281 -4.53125 7.125 -3.9375 7.125 -3.25 C 7.125 -2.5625 6.988281 -1.960938 6.71875 -1.453125 C 6.445312 -0.941406 6.0625 -0.550781 5.5625 -0.28125 C 5.070312 -0.0078125 4.488281 0.125 3.8125 0.125 Z M 3.8125 -1.125 C 4.3125 -1.125 4.707031 -1.300781 5 -1.65625 C 5.300781 -2.019531 5.453125 -2.550781 5.453125 -3.25 C 5.453125 -3.957031 5.300781 -4.484375 5 -4.828125 C 4.707031 -5.179688 4.3125 -5.359375 3.8125 -5.359375 C 3.320312 -5.359375 2.925781 -5.179688 2.625 -4.828125 C 2.320312 -4.484375 2.171875 -3.957031 2.171875 -3.25 C 2.171875 -2.550781 2.320312 -2.019531 2.625 -1.65625 C 2.925781 -1.300781 3.320312 -1.125 3.8125 -1.125 Z M 3.8125 -1.125" stroke-linecap="round" />
</g>
		<g transform="matrix(1.33 0 0 1.33 52.36 79.61)"  >
<path style="stroke: none; stroke-width: 1; stroke-dasharray: none; stroke-linecap: butt; stroke-dashoffset: 0; stroke-linejoin: miter; stroke-miterlimit: 4; fill: rgb(138,215,187); fill-rule: nonzero; opacity: 1;" vector-effect="non-scaling-stroke"  transform=" translate(-2.54, 4.66)" d="M 3.078125 0.125 C 1.597656 0.125 0.859375 -0.695312 0.859375 -2.34375 L 0.859375 -8.609375 C 0.859375 -9.171875 1.132812 -9.453125 1.6875 -9.453125 C 2.238281 -9.453125 2.515625 -9.171875 2.515625 -8.609375 L 2.515625 -2.421875 C 2.515625 -1.628906 2.847656 -1.234375 3.515625 -1.234375 C 3.585938 -1.234375 3.648438 -1.234375 3.703125 -1.234375 C 3.765625 -1.242188 3.828125 -1.253906 3.890625 -1.265625 C 4.015625 -1.273438 4.097656 -1.238281 4.140625 -1.15625 C 4.191406 -1.070312 4.21875 -0.90625 4.21875 -0.65625 C 4.21875 -0.425781 4.171875 -0.25 4.078125 -0.125 C 3.992188 -0.0078125 3.847656 0.0625 3.640625 0.09375 C 3.453125 0.113281 3.265625 0.125 3.078125 0.125 Z M 3.078125 0.125" stroke-linecap="round" />
</g>
		<g transform="matrix(1 0 0 1 -74.7 16.41)"  >
<path style="stroke: rgb(47,116,142); stroke-width: 1; stroke-dasharray: none; stroke-linecap: round; stroke-dashoffset: 0; stroke-linejoin: miter; stroke-miterlimit: 4; fill: none; fill-rule: nonzero; opacity: 1;" vector-effect="non-scaling-stroke"  transform=" translate(-40.13, -0.5)" d="M 0.497745 0.497855 L 79.763376 0.497855" stroke-linecap="round" />
</g>
</g>
</g>
</svg>