<svg width="54" height="61" viewBox="0 0 54 61" fill="none" xmlns="http://www.w3.org/2000/svg">
<path d="M0.240789 5.15686C0.0102971 2.40508 2.05758 -0.0388073 4.81862 0.00657061C11.0084 0.108315 17.1406 1.35906 22.8986 3.71027C30.2036 6.69317 36.6989 11.3626 41.8535 17.3368C47.0081 23.3109 50.6756 30.4202 52.5561 38.0834C54.0384 44.1237 54.3773 50.373 53.5711 56.5109C53.2115 59.2488 50.4941 60.916 47.8058 60.2848C45.1174 59.6537 43.4831 56.9617 43.7741 54.2157C44.2605 49.6259 43.9503 44.9736 42.8442 40.4666C41.3398 34.3361 38.4058 28.6487 34.2822 23.8694C30.1585 19.09 24.9623 15.3545 19.1183 12.9682C14.822 11.2139 10.2654 10.2254 5.65384 10.0342C2.89479 9.91976 0.471281 7.90865 0.240789 5.15686Z" fill="url(#paint0_linear_1735_1106)"/>
<defs>
<linearGradient id="paint0_linear_1735_1106" x1="-59.4029" y1="111.69" x2="4.0939" y2="-45.9933" gradientUnits="userSpaceOnUse">
<stop stop-color="#DB94FD"/>
<stop offset="1" stop-color="#4A37F8"/>
</linearGradient>
</defs>
</svg>
