<svg width="54" height="61" viewBox="0 0 54 61" fill="none" xmlns="http://www.w3.org/2000/svg">
<path d="M0.242864 5.15686C0.0123723 2.40508 2.05965 -0.0388073 4.8207 0.00657061C11.0105 0.108315 17.1427 1.35906 22.9007 3.71027C30.2057 6.69317 36.701 11.3626 41.8556 17.3368C47.0101 23.3109 50.6776 30.4202 52.5582 38.0834C54.0405 44.1237 54.3794 50.373 53.5732 56.5109C53.2136 59.2488 50.4962 60.916 47.8078 60.2848C45.1195 59.6537 43.4851 56.9617 43.7762 54.2157C44.2626 49.6259 43.9523 44.9736 42.8463 40.4666C41.3419 34.3361 38.4079 28.6487 34.2842 23.8694C30.1606 19.09 24.9643 15.3545 19.1204 12.9682C14.8241 11.2139 10.2675 10.2254 5.65592 10.0342C2.89687 9.91976 0.473356 7.90865 0.242864 5.15686Z" fill="url(#paint0_linear_1735_1098)"/>
<defs>
<linearGradient id="paint0_linear_1735_1098" x1="-59.4008" y1="111.69" x2="4.09598" y2="-45.9933" gradientUnits="userSpaceOnUse">
<stop stop-color="#DB94FD"/>
<stop offset="1" stop-color="#4A37F8"/>
</linearGradient>
</defs>
</svg>
