<svg width="54" height="61" viewBox="0 0 54 61" fill="none" xmlns="http://www.w3.org/2000/svg">
<path d="M0.238714 5.15686C0.00822193 2.40508 2.0555 -0.0388073 4.81655 0.00657061C11.0063 0.108315 17.1385 1.35906 22.8966 3.71027C30.2015 6.69317 36.6968 11.3626 41.8514 17.3368C47.006 23.3109 50.6735 30.4202 52.554 38.0834C54.0363 44.1237 54.3752 50.373 53.5691 56.5109C53.2095 59.2488 50.492 60.916 47.8037 60.2848C45.1154 59.6537 43.481 56.9617 43.772 54.2157C44.2585 49.6259 43.9482 44.9736 42.8422 40.4666C41.3377 34.3361 38.4037 28.6487 34.2801 23.8694C30.1564 19.09 24.9602 15.3545 19.1162 12.9682C14.82 11.2139 10.2633 10.2254 5.65177 10.0342C2.89272 9.91976 0.469206 7.90865 0.238714 5.15686Z" fill="url(#paint0_linear_1735_1114)"/>
<defs>
<linearGradient id="paint0_linear_1735_1114" x1="-59.4049" y1="111.69" x2="4.09183" y2="-45.9933" gradientUnits="userSpaceOnUse">
<stop stop-color="#DB94FD"/>
<stop offset="1" stop-color="#4A37F8"/>
</linearGradient>
</defs>
</svg>
