<svg width="265" height="215" viewBox="0 0 265 215" fill="none" xmlns="http://www.w3.org/2000/svg">
<path d="M264.619 79.8548C264.619 101.136 259.684 122.115 250.219 141.076C240.753 160.038 227.025 176.444 210.157 188.953C193.29 201.461 173.761 209.718 153.168 213.047C132.575 216.376 111.502 214.683 91.6729 208.107C71.8437 201.531 53.8208 190.258 39.0778 175.21C24.3348 160.162 13.2904 141.766 6.84746 121.526C0.404538 101.287 -1.25391 79.7783 2.00771 58.7592C5.26932 37.7401 13.3584 17.8073 25.6136 0.590542L79.0567 40.2226C72.9292 48.831 68.8846 58.7974 67.2538 69.307C65.623 79.8165 66.4522 90.5708 69.6737 100.691C72.8951 110.81 78.4174 120.008 85.7889 127.532C93.1603 135.056 102.172 140.693 112.086 143.981C122.001 147.269 132.537 148.115 142.834 146.451C153.13 144.786 162.895 140.658 171.329 134.404C179.763 128.149 186.626 119.946 191.359 110.466C196.092 100.985 198.559 90.4953 198.559 79.8548H264.619Z" fill="#927EF7"/>
</svg>
