<svg width="545" height="681" viewBox="0 0 545 681" fill="none" xmlns="http://www.w3.org/2000/svg">
<g opacity="0.5">
<path fill-rule="evenodd" clip-rule="evenodd" d="M-83.5301 58.4583C-124.906 68.0375 -160.181 91.4252 -181.598 123.477L-284.945 278.138L-267.63 333.972C-255.397 373.418 -224.781 404.366 -185.88 421.779C-209.493 453.665 -218.097 493.694 -205.865 533.14L-188.55 588.973L-9.54947 678.267C27.5464 696.773 71.6297 701.787 113.005 692.208C158.659 681.638 194.478 655.186 214.631 621.574C251.535 641.976 297.863 649.41 343.516 638.841C384.892 629.262 420.167 605.874 441.585 573.822L544.931 419.161L527.616 363.327C515.383 323.881 484.768 292.933 445.866 275.52C469.479 243.633 478.084 203.605 465.851 164.159L448.536 108.325L269.536 19.0322C232.44 0.527021 188.356 -4.48786 146.981 5.09127C101.327 15.6608 65.5086 42.1138 45.3551 75.7254C8.45116 55.3235 -37.8765 47.8887 -83.5301 58.4583ZM235.592 324.201C233.404 323.222 231.237 322.197 229.093 321.128L101.76 257.608L28.2439 367.628C27.0063 369.48 25.7225 371.304 24.3938 373.097C26.5823 374.077 28.7495 375.101 30.8932 376.171L158.226 439.691L231.742 329.671C232.98 327.819 234.264 325.995 235.592 324.201ZM218.939 494.633L227.208 521.298C238.234 556.851 280.531 577.951 321.679 568.425C341.439 563.85 358.287 552.68 368.516 537.372L454.388 408.86L446.119 382.195C435.093 346.642 392.796 325.542 351.648 335.069C331.888 339.643 315.04 350.814 304.811 366.121L218.939 494.633ZM137.442 513.501L-11.2932 439.305C-29.01 430.467 -50.064 428.071 -69.8244 432.646C-110.973 442.173 -135.392 478.719 -124.367 514.272L-116.098 540.937L32.6368 615.133C50.3536 623.971 71.4083 626.367 91.1683 621.792C132.317 612.265 156.737 575.719 145.711 540.166L137.442 513.501ZM32.778 176.001L41.0471 202.666L-44.8251 331.178C-55.0539 346.485 -71.9011 357.655 -91.6614 362.23C-132.81 371.757 -175.106 350.657 -186.132 315.103L-194.401 288.438L-108.53 159.927C-98.3008 144.62 -81.4528 133.45 -61.6928 128.875C-20.5446 119.348 21.7523 140.447 32.778 176.001ZM271.279 257.994L122.544 183.798L114.275 157.133C103.249 121.58 127.67 85.0344 168.818 75.5079C188.578 70.9332 209.633 73.328 227.349 82.1659L376.084 156.362L384.354 183.027C395.379 218.58 370.959 255.126 329.811 264.653C310.051 269.227 288.996 266.832 271.279 257.994Z" fill="url(#paint0_linear_1735_486)" fill-opacity="0.05"/>
<path d="M-185.039 422.382L-184.326 421.419L-185.5 420.894C-224.153 403.592 -254.524 372.867 -266.656 333.746L-283.837 278.344L-180.732 124.045C-159.453 92.2002 -124.388 68.9413 -83.2339 59.4134C-37.8246 48.9004 8.22991 56.3013 44.8915 76.5692L45.7669 77.0532L46.2449 76.2559C66.266 42.865 101.868 16.5594 147.277 6.0464C188.431 -3.48147 232.258 1.51252 269.114 19.8978L447.695 108.982L464.876 164.384C477.008 203.505 468.487 243.234 445.025 274.917L444.312 275.879L445.487 276.405C484.139 293.707 514.51 324.432 526.642 363.553L543.823 418.955L440.718 573.255C419.44 605.1 384.374 628.358 343.22 637.886C297.811 648.399 251.756 640.998 215.095 620.73L214.219 620.246L213.741 621.043C193.72 654.435 158.118 680.74 112.709 691.253C71.5549 700.781 27.7281 695.787 -9.12755 677.402L-187.709 588.317L-204.89 532.915C-217.022 493.794 -208.5 454.064 -185.039 422.382ZM236.434 324.804L237.147 323.842L235.972 323.316C233.798 322.343 231.645 321.325 229.515 320.262L102.182 256.742L101.365 256.335L100.893 257.041L27.3775 367.06C26.148 368.901 24.8725 370.713 23.5525 372.494L22.8392 373.457L24.0142 373.983C26.1884 374.956 28.3416 375.974 30.4713 377.037L157.804 440.556L158.621 440.964L159.093 440.258L232.609 330.238C233.838 328.398 235.114 326.586 236.434 324.804ZM218.073 494.066L217.831 494.427L217.965 494.859L226.234 521.524C237.457 557.714 280.408 579.003 321.975 569.38C341.957 564.754 359.015 553.455 369.382 537.939L455.254 409.428L455.496 409.066L455.362 408.635L447.093 381.97C435.87 345.779 392.919 324.49 351.352 334.113C331.37 338.739 314.312 350.039 303.945 365.554L218.073 494.066ZM138.416 513.275L138.282 512.844L137.864 512.635L-10.8713 438.439C-28.8282 429.481 -50.1388 427.065 -70.1206 431.691C-111.688 441.315 -136.564 478.307 -125.341 514.498L-117.072 541.163L-116.938 541.594L-116.52 541.803L32.2148 615.999C50.1718 624.957 71.4831 627.373 91.4645 622.747C133.031 613.124 157.909 576.131 146.685 539.94L138.416 513.275ZM41.9135 203.233L42.1551 202.872L42.0214 202.44L33.7523 175.776C22.5288 139.585 -20.422 118.296 -61.989 127.92C-81.9704 132.546 -99.0285 143.845 -109.396 159.36L-195.268 287.871L-195.509 288.233L-195.376 288.664L-187.106 315.329C-175.883 351.52 -132.933 372.809 -91.3652 363.185C-71.3834 358.559 -54.3262 347.26 -43.9588 331.745L41.9135 203.233ZM121.57 184.023L121.704 184.455L122.122 184.664L270.857 258.86C288.814 267.818 310.126 270.234 330.107 265.608C371.674 255.984 396.551 218.992 385.328 182.801L377.059 156.136L376.925 155.705L376.506 155.496L227.771 81.3002C209.814 72.3426 188.503 69.9268 168.522 74.5528C126.955 84.1763 102.077 121.168 113.301 157.359L121.57 184.023Z" stroke="url(#paint1_linear_1735_486)" stroke-opacity="0.05" stroke-width="2"/>
</g>
<defs>
<linearGradient id="paint0_linear_1735_486" x1="-108.192" y1="64.168" x2="520.013" y2="759.231" gradientUnits="userSpaceOnUse">
<stop stop-color="#E6B1FE" stop-opacity="0"/>
<stop offset="1" stop-color="#9B88FD"/>
</linearGradient>
<linearGradient id="paint1_linear_1735_486" x1="31.7253" y1="31.7748" x2="180.983" y2="676.47" gradientUnits="userSpaceOnUse">
<stop stop-color="#FABFFF" stop-opacity="0"/>
<stop offset="1" stop-color="#7959FA"/>
</linearGradient>
</defs>
</svg>
