<svg width="15" height="15" viewBox="0 0 15 15" fill="none" xmlns="http://www.w3.org/2000/svg">
<path d="M2.25586 7.04492V9.66409C2.25586 12.2833 3.30586 13.3333 5.92503 13.3333H9.06919C11.6884 13.3333 12.7384 12.2833 12.7384 9.66409V7.04492" stroke="white" stroke-linecap="round" stroke-linejoin="round"/>
<path d="M7.49999 7.50008C8.56749 7.50008 9.35499 6.63092 9.24999 5.56342L8.86499 1.66675H6.14083L5.74999 5.56342C5.64499 6.63092 6.43249 7.50008 7.49999 7.50008Z" stroke="white" stroke-linecap="round" stroke-linejoin="round"/>
<path d="M11.1808 7.50008C12.3592 7.50008 13.2225 6.54342 13.1058 5.37092L12.9425 3.76675C12.7325 2.25008 12.1492 1.66675 10.6208 1.66675H8.84167L9.25001 5.75592C9.34917 6.71842 10.2183 7.50008 11.1808 7.50008Z" stroke="white" stroke-linecap="round" stroke-linejoin="round"/>
<path d="M3.79005 7.50008C4.75255 7.50008 5.62172 6.71842 5.71505 5.75592L5.84339 4.46675L6.12339 1.66675H4.34422C2.81589 1.66675 2.23255 2.25008 2.02255 3.76675L1.86505 5.37092C1.74839 6.54342 2.61172 7.50008 3.79005 7.50008Z" stroke="white" stroke-linecap="round" stroke-linejoin="round"/>
<path d="M7.49996 10.4167C6.52579 10.4167 6.04163 10.9009 6.04163 11.8751V13.3334H8.95829V11.8751C8.95829 10.9009 8.47413 10.4167 7.49996 10.4167Z" stroke="white" stroke-linecap="round" stroke-linejoin="round"/>
</svg>
