<svg width="15" height="15" viewBox="0 0 15 15" fill="none" xmlns="http://www.w3.org/2000/svg">
<path d="M13.3334 4.29175H9.83337" stroke="white" stroke-miterlimit="10" stroke-linecap="round" stroke-linejoin="round"/>
<path d="M3.99996 4.29175H1.66663" stroke="white" stroke-miterlimit="10" stroke-linecap="round" stroke-linejoin="round"/>
<path d="M6.33329 6.33333C7.46087 6.33333 8.37496 5.41925 8.37496 4.29167C8.37496 3.16409 7.46087 2.25 6.33329 2.25C5.20571 2.25 4.29163 3.16409 4.29163 4.29167C4.29163 5.41925 5.20571 6.33333 6.33329 6.33333Z" stroke="white" stroke-miterlimit="10" stroke-linecap="round" stroke-linejoin="round"/>
<path d="M13.3333 10.7083H11" stroke="white" stroke-miterlimit="10" stroke-linecap="round" stroke-linejoin="round"/>
<path d="M5.16663 10.7083H1.66663" stroke="white" stroke-miterlimit="10" stroke-linecap="round" stroke-linejoin="round"/>
<path d="M8.66667 12.7501C9.79425 12.7501 10.7083 11.836 10.7083 10.7084C10.7083 9.58083 9.79425 8.66675 8.66667 8.66675C7.53909 8.66675 6.625 9.58083 6.625 10.7084C6.625 11.836 7.53909 12.7501 8.66667 12.7501Z" stroke="white" stroke-miterlimit="10" stroke-linecap="round" stroke-linejoin="round"/>
</svg>
