<svg width="21" height="20" viewBox="0 0 21 20" fill="none" xmlns="http://www.w3.org/2000/svg">
<path d="M4.66663 8.33341H6.33329C7.99996 8.33341 8.83329 7.50008 8.83329 5.83341V4.16675C8.83329 2.50008 7.99996 1.66675 6.33329 1.66675H4.66663C2.99996 1.66675 2.16663 2.50008 2.16663 4.16675V5.83341C2.16663 7.50008 2.99996 8.33341 4.66663 8.33341Z" fill="white" stroke="white" stroke-width="1.5" stroke-miterlimit="10" stroke-linecap="round" stroke-linejoin="round"/>
<path d="M14.6666 8.33341H16.3333C18 8.33341 18.8333 7.50008 18.8333 5.83341V4.16675C18.8333 2.50008 18 1.66675 16.3333 1.66675H14.6666C13 1.66675 12.1666 2.50008 12.1666 4.16675V5.83341C12.1666 7.50008 13 8.33341 14.6666 8.33341Z" fill="white" stroke="white" stroke-width="1.5" stroke-miterlimit="10" stroke-linecap="round" stroke-linejoin="round"/>
<path d="M14.6666 18.3334H16.3333C18 18.3334 18.8333 17.5001 18.8333 15.8334V14.1667C18.8333 12.5001 18 11.6667 16.3333 11.6667H14.6666C13 11.6667 12.1666 12.5001 12.1666 14.1667V15.8334C12.1666 17.5001 13 18.3334 14.6666 18.3334Z" fill="white" stroke="white" stroke-width="1.5" stroke-miterlimit="10" stroke-linecap="round" stroke-linejoin="round"/>
<path d="M4.66663 18.3334H6.33329C7.99996 18.3334 8.83329 17.5001 8.83329 15.8334V14.1667C8.83329 12.5001 7.99996 11.6667 6.33329 11.6667H4.66663C2.99996 11.6667 2.16663 12.5001 2.16663 14.1667V15.8334C2.16663 17.5001 2.99996 18.3334 4.66663 18.3334Z" fill="white" stroke="white" stroke-width="1.5" stroke-miterlimit="10" stroke-linecap="round" stroke-linejoin="round"/>
</svg>
