<svg width="30" height="30" viewBox="0 0 30 30" fill="none" xmlns="http://www.w3.org/2000/svg">
<rect width="30" height="30" rx="5" fill="#252739"/>
<path d="M15.0167 7.42505C12.2583 7.42505 10.0167 9.66672 10.0167 12.425V14.8334C10.0167 15.3417 9.80001 16.1167 9.54168 16.55L8.58335 18.1417C7.99168 19.125 8.40001 20.2167 9.48335 20.5834C13.075 21.7834 16.95 21.7834 20.5417 20.5834C21.55 20.2501 21.9917 19.0584 21.4417 18.1417L20.4833 16.55C20.2333 16.1167 20.0167 15.3417 20.0167 14.8334V12.425C20.0167 9.67505 17.7667 7.42505 15.0167 7.42505Z" stroke="white" stroke-width="1.5" stroke-miterlimit="10" stroke-linecap="round"/>
<path d="M16.5583 7.6667C16.3 7.5917 16.0333 7.53337 15.7583 7.50003C14.9583 7.40003 14.1917 7.45837 13.475 7.6667C13.7167 7.05003 14.3167 6.6167 15.0167 6.6167C15.7167 6.6167 16.3167 7.05003 16.5583 7.6667Z" stroke="white" stroke-width="1.5" stroke-miterlimit="10" stroke-linecap="round" stroke-linejoin="round"/>
<path d="M17.5167 20.8833C17.5167 22.2583 16.3917 23.3833 15.0167 23.3833C14.3333 23.3833 13.7 23.1 13.25 22.65C12.8 22.2 12.5167 21.5666 12.5167 20.8833" stroke="white" stroke-width="1.5" stroke-miterlimit="10"/>
</svg>
