<svg width="15" height="15" viewBox="0 0 15 15" fill="none" xmlns="http://www.w3.org/2000/svg">
<path d="M7.5 9.25C8.4665 9.25 9.25 8.4665 9.25 7.5C9.25 6.5335 8.4665 5.75 7.5 5.75C6.5335 5.75 5.75 6.5335 5.75 7.5C5.75 8.4665 6.5335 9.25 7.5 9.25Z" stroke="white" stroke-miterlimit="10" stroke-linecap="round" stroke-linejoin="round"/>
<path d="M1.66663 8.01326V6.98659C1.66663 6.37992 2.16246 5.87826 2.77496 5.87826C3.83079 5.87826 4.26246 5.13159 3.73163 4.21576C3.42829 3.69076 3.60913 3.00826 4.13996 2.70492L5.14913 2.12742C5.60996 1.85326 6.20496 2.01659 6.47913 2.47742L6.54329 2.58826C7.06829 3.50409 7.93163 3.50409 8.46246 2.58826L8.52663 2.47742C8.80079 2.01659 9.39579 1.85326 9.85663 2.12742L10.8658 2.70492C11.3966 3.00826 11.5775 3.69076 11.2741 4.21576C10.7433 5.13159 11.175 5.87826 12.2308 5.87826C12.8375 5.87826 13.3391 6.37409 13.3391 6.98659V8.01326C13.3391 8.61992 12.8433 9.12159 12.2308 9.12159C11.175 9.12159 10.7433 9.86825 11.2741 10.7841C11.5775 11.3149 11.3966 11.9916 10.8658 12.2949L9.85663 12.8724C9.39579 13.1466 8.80079 12.9833 8.52663 12.5224L8.46246 12.4116C7.93746 11.4958 7.07413 11.4958 6.54329 12.4116L6.47913 12.5224C6.20496 12.9833 5.60996 13.1466 5.14913 12.8724L4.13996 12.2949C3.60913 11.9916 3.42829 11.3091 3.73163 10.7841C4.26246 9.86825 3.83079 9.12159 2.77496 9.12159C2.16246 9.12159 1.66663 8.61992 1.66663 8.01326Z" stroke="white" stroke-miterlimit="10" stroke-linecap="round" stroke-linejoin="round"/>
</svg>
